<svg width="172" height="50" viewBox="0 0 172 50" fill="none" xmlns="http://www.w3.org/2000/svg">
<g clip-path="url(#clip0_173_166)">
<mask id="mask0_173_166" style="mask-type:luminance" maskUnits="userSpaceOnUse" x="0" y="0" width="172" height="50">
<path d="M172 0.932617H0V49.9326H172V0.932617Z" fill="white"/>
</mask>
<g mask="url(#mask0_173_166)">
<path d="M165.868 1.69922H6.13425C3.17032 1.69922 0.767578 4.10196 0.767578 7.06589V43.7992C0.767578 46.7632 3.17032 49.1659 6.13425 49.1659H165.868C168.832 49.1659 171.235 46.7632 171.235 43.7992V7.06589C171.235 4.10196 168.832 1.69922 165.868 1.69922Z" stroke="#0A0A0A" stroke-width="1.53333"/>
<path d="M132.38 36.5874H134.602V21.7004H132.38V36.5874ZM152.396 27.0621L149.849 33.5171H149.772L147.128 27.0621H144.735L148.699 36.0837L146.439 41.1024H148.756L154.867 27.0621H152.396ZM139.793 34.8963C139.064 34.8963 138.05 34.5318 138.05 33.6315C138.05 32.4822 139.313 32.0427 140.405 32.0427C141.382 32.0427 141.842 32.2535 142.436 32.5406C142.354 33.1862 142.042 33.7805 141.556 34.2135C141.07 34.6465 140.444 34.889 139.793 34.8963ZM140.061 26.7382C138.452 26.7382 136.785 27.4456 136.095 29.0153L138.069 29.8395C138.49 29.0153 139.275 28.7474 140.099 28.7474C141.249 28.7474 142.417 29.4381 142.436 30.6624V30.8172C142.033 30.5862 141.171 30.242 140.118 30.242C137.993 30.242 135.827 31.4103 135.827 33.5934C135.827 35.5858 137.571 36.8685 139.524 36.8685C141.019 36.8685 141.842 36.1992 142.36 35.4131H142.436V36.5624H144.581V30.8542C144.581 28.2114 142.609 26.7382 140.061 26.7382ZM126.327 28.8748H123.166V23.7703H126.327C127.988 23.7703 128.932 25.1471 128.932 26.3226C128.932 27.4778 127.988 28.8748 126.327 28.8748ZM126.27 21.6993H120.945V36.5874H123.166V30.9471H126.27C128.733 30.9471 131.154 29.163 131.154 26.3226C131.154 23.4821 128.733 21.6993 126.27 21.6993ZM97.233 34.8987C95.6978 34.8987 94.4128 33.6136 94.4128 31.8498C94.4128 30.0646 95.6978 28.7593 97.233 28.7593C98.7491 28.7593 99.9376 30.0646 99.9376 31.8486C99.9376 33.6136 98.7491 34.8987 97.233 34.8987ZM99.784 27.8958H99.7078C99.2088 27.3015 98.25 26.7644 97.0412 26.7644C94.508 26.7644 92.1869 28.9891 92.1869 31.8498C92.1869 34.6879 94.508 36.8947 97.0412 36.8947C98.25 36.8947 99.2088 36.3588 99.7078 35.743H99.784V36.4719C99.784 38.4108 98.749 39.4457 97.0793 39.4457C95.7169 39.4457 94.8725 38.4691 94.5271 37.6426L92.5894 38.4489C93.1456 39.7923 94.6236 41.4418 97.0793 41.4418C99.6887 41.4418 101.896 39.9066 101.896 36.1658V27.0717H99.784V27.8958ZM103.43 36.5874H105.656V21.6981H103.43V36.5874ZM108.937 31.6759C108.88 29.718 110.453 28.7223 111.584 28.7223C112.468 28.7223 113.216 29.163 113.465 29.7954L108.937 31.6759ZM115.844 29.9871C115.421 28.8557 114.136 26.7632 111.508 26.7632C108.899 26.7632 106.731 28.8164 106.731 31.8296C106.731 34.6688 108.88 36.8947 111.757 36.8947C114.079 36.8947 115.421 35.4751 115.979 34.6497L114.252 33.4981C113.676 34.3437 112.89 34.8987 111.757 34.8987C110.625 34.8987 109.819 34.3806 109.301 33.3647L116.074 30.5624L115.844 29.9871ZM61.8841 28.3198V30.4671H67.0255C66.8718 31.6759 66.4693 32.5584 65.8559 33.1718C65.1068 33.9221 63.9361 34.745 61.8841 34.745C58.7173 34.745 56.2425 32.194 56.2425 29.0284C56.2425 25.8617 58.7173 23.3118 61.8841 23.3118C63.5919 23.3118 64.8389 23.9811 65.7595 24.8446L67.2756 23.3297C65.9893 22.103 64.2827 21.1621 61.8841 21.1621C57.5478 21.1621 53.9023 24.6921 53.9023 29.0272C53.9023 33.3647 57.5478 36.8947 61.8841 36.8947C64.2243 36.8947 65.9893 36.1265 67.3709 34.6879C68.7905 33.2682 69.2323 31.2734 69.2323 29.662C69.2323 29.1618 69.1942 28.7021 69.1168 28.3186L61.8841 28.3198ZM75.0775 34.8987C73.5436 34.8987 72.2192 33.6327 72.2192 31.8296C72.2192 30.0074 73.5436 28.7593 75.0775 28.7593C76.6127 28.7593 77.937 30.0062 77.937 31.8296C77.937 33.6327 76.6127 34.8987 75.0775 34.8987ZM75.0775 26.7644C72.2764 26.7644 69.9933 28.8938 69.9933 31.8296C69.9933 34.745 72.2764 36.8947 75.0775 36.8947C77.8787 36.8947 80.1629 34.745 80.1629 31.8296C80.1629 28.8938 77.8787 26.7644 75.0775 26.7644ZM86.1701 34.8987C84.635 34.8987 83.3106 33.6327 83.3106 31.8296C83.3106 30.0074 84.635 28.7593 86.1701 28.7593C87.7053 28.7593 89.0284 30.0062 89.0284 31.8296C89.0284 33.6327 87.7053 34.8987 86.1701 34.8987ZM86.1701 26.7644C83.369 26.7644 81.0859 28.8938 81.0859 31.8296C81.0859 34.745 83.369 36.8947 86.1701 36.8947C88.9713 36.8947 91.2543 34.745 91.2543 31.8296C91.2543 28.8938 88.9713 26.7644 86.1701 26.7644Z" fill="#0A0A0A"/>
<path d="M55.5643 16.2666H54.1012L54.1108 15.5109H55.5643C56.0649 15.5109 56.482 15.4066 56.8157 15.1981C57.1494 14.9863 57.3997 14.6911 57.5666 14.3125C57.7366 13.9306 57.8217 13.4846 57.8217 12.9744V12.5461C57.8217 12.145 57.7735 11.7888 57.6773 11.4776C57.581 11.1631 57.4398 10.8984 57.2537 10.6834C57.0676 10.4652 56.8398 10.3 56.5703 10.1877C56.3039 10.0754 55.9975 10.0192 55.651 10.0192H54.0723V9.25879H55.651C56.1098 9.25879 56.5286 9.3358 56.9072 9.48982C57.2858 9.64062 57.6115 9.86042 57.8842 10.1492C58.1602 10.4347 58.372 10.7813 58.5196 11.1888C58.6672 11.5931 58.741 12.0487 58.741 12.5557V12.9744C58.741 13.4814 58.6672 13.9387 58.5196 14.3462C58.372 14.7505 58.1586 15.0954 57.8794 15.381C57.6035 15.6665 57.2698 15.8863 56.8783 16.0404C56.49 16.1912 56.0521 16.2666 55.5643 16.2666ZM54.5969 9.25879V16.2666H53.668V9.25879H54.5969Z" fill="#0A0A0A"/>
<path d="M61.132 9.25879V16.2666H60.2031V9.25879H61.132Z" fill="#0A0A0A"/>
<path d="M66.5569 14.495C66.5569 14.3313 66.5312 14.1869 66.4799 14.0618C66.4317 13.9334 66.3451 13.8179 66.2199 13.7153C66.098 13.6126 65.928 13.5147 65.7098 13.4217C65.4948 13.3286 65.222 13.2339 64.8915 13.1377C64.545 13.035 64.2322 12.9211 63.953 12.796C63.6738 12.6676 63.4348 12.5216 63.2359 12.358C63.0369 12.1943 62.8845 12.0066 62.7786 11.7948C62.6727 11.5831 62.6198 11.3408 62.6198 11.0681C62.6198 10.7953 62.6759 10.5434 62.7882 10.3124C62.9005 10.0814 63.061 9.88086 63.2695 9.7108C63.4813 9.53753 63.7332 9.40276 64.0252 9.3065C64.3172 9.21024 64.6429 9.16211 65.0022 9.16211C65.5285 9.16211 65.9745 9.26318 66.3403 9.46533C66.7093 9.66427 66.99 9.92578 67.1826 10.2498C67.3751 10.5707 67.4713 10.9141 67.4713 11.2798H66.5472C66.5472 11.0167 66.4911 10.7841 66.3788 10.582C66.2665 10.3766 66.0964 10.2162 65.8686 10.1006C65.6408 9.98193 65.352 9.92257 65.0022 9.92257C64.6717 9.92257 64.399 9.97231 64.184 10.0718C63.969 10.1712 63.8086 10.306 63.7027 10.4761C63.6 10.6461 63.5487 10.8403 63.5487 11.0584C63.5487 11.206 63.5792 11.3408 63.6402 11.4627C63.7043 11.5815 63.8022 11.6922 63.9337 11.7948C64.0685 11.8975 64.2386 11.9922 64.4439 12.0788C64.6525 12.1654 64.9012 12.2489 65.19 12.3291C65.5878 12.4414 65.9312 12.5665 66.2199 12.7045C66.5087 12.8425 66.7462 12.9981 66.9323 13.1714C67.1216 13.3414 67.2612 13.5356 67.351 13.7538C67.4441 13.9687 67.4906 14.2126 67.4906 14.4853C67.4906 14.7709 67.4328 15.0292 67.3173 15.2602C67.2018 15.4913 67.0366 15.6886 66.8216 15.8522C66.6066 16.0159 66.3483 16.1426 66.0467 16.2325C65.7483 16.3191 65.4146 16.3624 65.0456 16.3624C64.7215 16.3624 64.4022 16.3175 64.0878 16.2277C63.7765 16.1378 63.4926 16.0031 63.2359 15.8234C62.9824 15.6437 62.7786 15.4223 62.6246 15.1592C62.4738 14.8928 62.3984 14.5848 62.3984 14.2351H63.3225C63.3225 14.4757 63.369 14.6827 63.4621 14.8559C63.5551 15.026 63.6819 15.1672 63.8423 15.2795C64.0059 15.3918 64.1904 15.4752 64.3958 15.5298C64.6044 15.5811 64.821 15.6068 65.0456 15.6068C65.3696 15.6068 65.644 15.5619 65.8686 15.472C66.0932 15.3822 66.2633 15.2538 66.3788 15.087C66.4975 14.9201 66.5569 14.7228 66.5569 14.495Z" fill="#0A0A0A"/>
<path d="M71.2604 13.5183H69.3881V12.7627H71.2604C71.623 12.7627 71.9166 12.7049 72.1412 12.5894C72.3658 12.4739 72.5295 12.3134 72.6321 12.1081C72.738 11.9027 72.791 11.6685 72.791 11.4054C72.791 11.1647 72.738 10.9385 72.6321 10.7267C72.5295 10.515 72.3658 10.3449 72.1412 10.2166C71.9166 10.085 71.623 10.0192 71.2604 10.0192H69.6047V16.2666H68.6758V9.25879H71.2604C71.7899 9.25879 72.2375 9.35024 72.6033 9.53313C72.9691 9.71603 73.2466 9.96952 73.4359 10.2936C73.6252 10.6144 73.7199 10.9818 73.7199 11.3958C73.7199 11.845 73.6252 12.2284 73.4359 12.5461C73.2466 12.8637 72.9691 13.106 72.6033 13.2728C72.2375 13.4365 71.7899 13.5183 71.2604 13.5183Z" fill="#0A0A0A"/>
<path d="M80.2884 12.5409V12.9837C80.2884 13.5099 80.2226 13.9816 80.0911 14.3987C79.9595 14.8158 79.7702 15.1704 79.5231 15.4624C79.2761 15.7544 78.9793 15.9774 78.6327 16.1314C78.2894 16.2854 77.9044 16.3624 77.4776 16.3624C77.0637 16.3624 76.6834 16.2854 76.3369 16.1314C75.9936 15.9774 75.6952 15.7544 75.4417 15.4624C75.1914 15.1704 74.9973 14.8158 74.8593 14.3987C74.7213 13.9816 74.6523 13.5099 74.6523 12.9837V12.5409C74.6523 12.0146 74.7197 11.5446 74.8545 11.1306C74.9925 10.7135 75.1866 10.3589 75.4369 10.067C75.6871 9.77176 75.9839 9.54715 76.3273 9.39313C76.6738 9.23912 77.054 9.16211 77.468 9.16211C77.8947 9.16211 78.2798 9.23912 78.6231 9.39313C78.9696 9.54715 79.2664 9.77176 79.5135 10.067C79.7638 10.3589 79.9547 10.7135 80.0863 11.1306C80.221 11.5446 80.2884 12.0146 80.2884 12.5409ZM79.3691 12.9837V12.5312C79.3691 12.1141 79.3258 11.7451 79.2392 11.4242C79.1557 11.1034 79.0322 10.8338 78.8686 10.6156C78.7049 10.3974 78.5044 10.2322 78.2669 10.1199C78.0327 10.0076 77.7664 9.95145 77.468 9.95145C77.1792 9.95145 76.9177 10.0076 76.6834 10.1199C76.4524 10.2322 76.2535 10.3974 76.0866 10.6156C75.923 10.8338 75.7962 11.1034 75.7064 11.4242C75.6165 11.7451 75.5716 12.1141 75.5716 12.5312V12.9837C75.5716 13.404 75.6165 13.7762 75.7064 14.1003C75.7962 14.4212 75.9246 14.6923 76.0914 14.9137C76.2615 15.1319 76.462 15.2971 76.6931 15.4094C76.9273 15.5218 77.1888 15.5779 77.4776 15.5779C77.7792 15.5779 78.0471 15.5218 78.2814 15.4094C78.5156 15.2971 78.7129 15.1319 78.8734 14.9137C79.037 14.6923 79.1606 14.4212 79.244 14.1003C79.3274 13.7762 79.3691 13.404 79.3691 12.9837Z" fill="#0A0A0A"/>
<path d="M87.0703 9.25879V16.2666H86.1366L82.6086 10.8615V16.2666H81.6797V9.25879H82.6086L86.151 14.6783V9.25879H87.0703Z" fill="#0A0A0A"/>
<path d="M89.7121 9.25879V16.2666H88.7832V9.25879H89.7121Z" fill="#0A0A0A"/>
<path d="M93.9002 12.9889H92.1242L92.1146 12.2429H93.727C93.9933 12.2429 94.2259 12.1979 94.4249 12.1081C94.6238 12.0182 94.7778 11.8899 94.8869 11.723C94.9992 11.553 95.0554 11.3508 95.0554 11.1166C95.0554 10.8599 95.0056 10.6513 94.9062 10.4909C94.8099 10.3273 94.6607 10.2085 94.4586 10.1347C94.2596 10.0577 94.0061 10.0192 93.6981 10.0192H92.3312V16.2666H91.4023V9.25879H93.6981C94.0575 9.25879 94.3783 9.29569 94.6607 9.36949C94.9431 9.44008 95.1821 9.55239 95.3779 9.7064C95.5768 9.85721 95.7276 10.0497 95.8303 10.2839C95.933 10.5182 95.9843 10.7989 95.9843 11.1262C95.9843 11.415 95.9105 11.6765 95.7629 11.9108C95.6153 12.1418 95.4099 12.3311 95.1468 12.4787C94.8869 12.6263 94.5821 12.721 94.2323 12.7627L93.9002 12.9889ZM93.8569 16.2666H91.7584L92.2831 15.5109H93.8569C94.1521 15.5109 94.4024 15.4596 94.6078 15.3569C94.8163 15.2542 94.9752 15.1098 95.0843 14.9237C95.1934 14.7344 95.2479 14.5114 95.2479 14.2547C95.2479 13.9948 95.2014 13.7702 95.1083 13.5809C95.0153 13.3916 94.8693 13.2456 94.6703 13.1429C94.4714 13.0402 94.2147 12.9889 93.9002 12.9889H92.5767L92.5863 12.2429H94.396L94.5933 12.5124C94.9302 12.5413 95.2158 12.6375 95.4501 12.8012C95.6843 12.9616 95.8624 13.167 95.9843 13.4172C96.1094 13.6675 96.172 13.9435 96.172 14.2451C96.172 14.6815 96.0758 15.0505 95.8832 15.3521C95.6939 15.6505 95.426 15.8783 95.0794 16.0355C94.7329 16.1896 94.3254 16.2666 93.8569 16.2666Z" fill="#0A0A0A"/>
<path d="M101.793 15.5109V16.2666H98.2891V15.5109H101.793ZM98.472 9.25879V16.2666H97.543V9.25879H98.472Z" fill="#0A0A0A"/>
<path d="M107.31 15.5109V16.2666H103.599V15.5109H107.31ZM103.786 9.25879V16.2666H102.857V9.25879H103.786ZM106.819 12.2717V13.0274H103.599V12.2717H106.819ZM107.261 9.25879V10.0192H103.599V9.25879H107.261Z" fill="#0A0A0A"/>
<path d="M114.639 14.495C114.639 14.3313 114.613 14.1869 114.562 14.0618C114.514 13.9334 114.427 13.8179 114.302 13.7153C114.18 13.6126 114.01 13.5147 113.792 13.4217C113.577 13.3286 113.304 13.2339 112.974 13.1377C112.627 13.035 112.314 12.9211 112.035 12.796C111.756 12.6676 111.517 12.5216 111.318 12.358C111.119 12.1943 110.966 12.0066 110.861 11.7948C110.755 11.5831 110.702 11.3408 110.702 11.0681C110.702 10.7953 110.758 10.5434 110.87 10.3124C110.982 10.0814 111.143 9.88086 111.352 9.7108C111.563 9.53753 111.815 9.40276 112.107 9.3065C112.399 9.21024 112.725 9.16211 113.084 9.16211C113.61 9.16211 114.056 9.26318 114.422 9.46533C114.791 9.66427 115.072 9.92578 115.265 10.2498C115.457 10.5707 115.553 10.9141 115.553 11.2798H114.629C114.629 11.0167 114.573 10.7841 114.461 10.582C114.348 10.3766 114.178 10.2162 113.951 10.1006C113.723 9.98193 113.434 9.92257 113.084 9.92257C112.754 9.92257 112.481 9.97231 112.266 10.0718C112.051 10.1712 111.891 10.306 111.785 10.4761C111.682 10.6461 111.631 10.8403 111.631 11.0584C111.631 11.206 111.661 11.3408 111.722 11.4627C111.786 11.5815 111.884 11.6922 112.016 11.7948C112.15 11.8975 112.321 11.9922 112.526 12.0788C112.734 12.1654 112.983 12.2489 113.272 12.3291C113.67 12.4414 114.013 12.5665 114.302 12.7045C114.591 12.8425 114.828 12.9981 115.014 13.1714C115.204 13.3414 115.343 13.5356 115.433 13.7538C115.526 13.9687 115.573 14.2126 115.573 14.4853C115.573 14.7709 115.515 15.0292 115.399 15.2602C115.284 15.4913 115.119 15.6886 114.904 15.8522C114.689 16.0159 114.43 16.1426 114.129 16.2325C113.83 16.3191 113.497 16.3624 113.128 16.3624C112.803 16.3624 112.484 16.3175 112.17 16.2277C111.858 16.1378 111.575 16.0031 111.318 15.8234C111.064 15.6437 110.861 15.4223 110.707 15.1592C110.556 14.8928 110.48 14.5848 110.48 14.2351H111.404C111.404 14.4757 111.451 14.6827 111.544 14.8559C111.637 15.026 111.764 15.1672 111.924 15.2795C112.088 15.3918 112.272 15.4752 112.478 15.5298C112.686 15.5811 112.903 15.6068 113.128 15.6068C113.452 15.6068 113.726 15.5619 113.951 15.472C114.175 15.3822 114.345 15.2538 114.461 15.087C114.579 14.9201 114.639 14.7228 114.639 14.495Z" fill="#0A0A0A"/>
<path d="M120.766 9.25879H121.69V13.9996C121.69 14.5258 121.573 14.9638 121.339 15.3136C121.104 15.6633 120.793 15.9264 120.405 16.1029C120.02 16.2762 119.601 16.3628 119.149 16.3628C118.674 16.3628 118.244 16.2762 117.859 16.1029C117.477 15.9264 117.174 15.6633 116.949 15.3136C116.728 14.9638 116.617 14.5258 116.617 13.9996V9.25879H117.536V13.9996C117.536 14.3654 117.604 14.667 117.738 14.9045C117.873 15.1419 118.061 15.3184 118.302 15.4339C118.545 15.5494 118.828 15.6072 119.149 15.6072C119.473 15.6072 119.755 15.5494 119.996 15.4339C120.24 15.3184 120.429 15.1419 120.564 14.9045C120.698 14.667 120.766 14.3654 120.766 13.9996V9.25879Z" fill="#0A0A0A"/>
<path d="M123.148 9.25879H125.468C125.994 9.25879 126.439 9.33901 126.801 9.49944C127.167 9.65988 127.445 9.89732 127.634 10.2117C127.827 10.523 127.923 10.9064 127.923 11.3621C127.923 11.6829 127.857 11.9765 127.726 12.2429C127.597 12.506 127.411 12.7306 127.167 12.9167C126.927 13.0996 126.638 13.2359 126.301 13.3258L126.041 13.4269H123.861L123.851 12.6712H125.497C125.831 12.6712 126.108 12.6135 126.33 12.4979C126.551 12.3792 126.718 12.2204 126.83 12.0215C126.943 11.8225 126.999 11.6027 126.999 11.3621C126.999 11.0925 126.946 10.8567 126.84 10.6545C126.734 10.4524 126.567 10.2968 126.339 10.1877C126.115 10.0754 125.824 10.0192 125.468 10.0192H124.077V16.2666H123.148V9.25879ZM127.244 16.2666L125.54 13.09L126.508 13.0851L128.236 16.2088V16.2666H127.244Z" fill="#0A0A0A"/>
<path d="M32.5786 24.4024L18.0686 38.9125C17.3749 38.2563 17 37.3565 17 36.3816V13.623C17 12.6294 17.3937 11.7296 18.1061 11.0547L32.5786 24.4024Z" fill="#2196F3"/>
<path d="M45.1198 25.0021C45.1198 26.3144 44.4074 27.4767 43.2263 28.1328L39.102 30.4199L33.9841 25.6957L32.5781 24.4022L37.996 18.9844L43.2263 21.8714C44.4074 22.5275 45.1198 23.6898 45.1198 25.0021Z" fill="#FFC107"/>
<path d="M32.578 24.4026L18.1055 11.0549C18.2929 10.8674 18.5366 10.6987 18.7804 10.5487C19.9614 9.83635 21.3862 9.8176 22.6047 10.4925L37.9959 18.9848L32.578 24.4026Z" fill="#4CAF50"/>
<path d="M39.1023 30.4201L22.6051 39.5123C22.0239 39.8497 21.3678 39.9997 20.7304 39.9997C20.0555 39.9997 19.3806 39.831 18.7807 39.456C18.5204 39.3069 18.2809 39.1241 18.0684 38.9124L32.5784 24.4023L33.9844 25.6959L39.1023 30.4201Z" fill="#F44336"/>
</g>
</g>
<defs>
<clipPath id="clip0_173_166">
<rect width="172" height="50" fill="white"/>
</clipPath>
</defs>
</svg>
