<svg width="1061" height="929" viewBox="0 0 1061 929" fill="none" xmlns="http://www.w3.org/2000/svg">
<path d="M0 812.5C0 522.274 235.274 287 525.5 287V287C815.726 287 1051 522.274 1051 812.5V929H0V812.5Z" fill="url(#paint0_linear_28_74)"/>
<path d="M0 525.5C0 235.274 235.274 0 525.5 0V0C815.726 0 1051 235.274 1051 525.5V929H0V525.5Z" fill="url(#paint1_linear_28_74)"/>
<g filter="url(#filter0_d_28_74)">
<path d="M1031 287H109C97.9543 287 89 295.954 89 307V822C89 833.046 97.9543 842 109 842H1031C1042.05 842 1051 833.046 1051 822V307C1051 295.954 1042.05 287 1031 287Z" fill="white"/>
<path d="M1031 287.5H109C98.2304 287.5 89.5 296.23 89.5 307V822C89.5 832.77 98.2304 841.5 109 841.5H1031C1041.77 841.5 1050.5 832.77 1050.5 822V307C1050.5 296.23 1041.77 287.5 1031 287.5Z" stroke="#A4A4A4" stroke-opacity="0.32"/>
<path d="M160.442 344.05C160.304 343.619 160.12 343.233 159.888 342.892C159.661 342.546 159.388 342.253 159.071 342.011C158.754 341.765 158.392 341.578 157.984 341.45C157.582 341.322 157.139 341.259 156.656 341.259C155.837 341.259 155.098 341.469 154.44 341.891C153.782 342.312 153.261 342.93 152.878 343.744C152.499 344.554 152.31 345.546 152.31 346.72C152.31 347.899 152.501 348.896 152.885 349.71C153.268 350.525 153.794 351.143 154.462 351.564C155.129 351.985 155.889 352.196 156.741 352.196C157.532 352.196 158.221 352.035 158.808 351.713C159.4 351.391 159.857 350.937 160.179 350.349C160.506 349.758 160.669 349.062 160.669 348.261L161.237 348.368H157.075V346.557H162.793V348.212C162.793 349.433 162.532 350.494 162.011 351.393C161.495 352.288 160.78 352.98 159.866 353.467C158.957 353.955 157.916 354.199 156.741 354.199C155.425 354.199 154.27 353.896 153.276 353.29C152.286 352.684 151.514 351.824 150.96 350.712C150.406 349.594 150.129 348.268 150.129 346.734C150.129 345.574 150.29 344.533 150.612 343.609C150.934 342.686 151.386 341.902 151.969 341.259C152.556 340.61 153.245 340.115 154.036 339.774C154.831 339.429 155.7 339.256 156.642 339.256C157.428 339.256 158.16 339.372 158.837 339.604C159.518 339.836 160.125 340.165 160.655 340.591C161.19 341.017 161.633 341.524 161.983 342.111C162.333 342.693 162.57 343.339 162.693 344.05H160.442ZM170.11 354.22C169.035 354.22 168.109 353.991 167.333 353.531C166.561 353.067 165.964 352.416 165.543 351.578C165.126 350.735 164.918 349.748 164.918 348.616C164.918 347.499 165.126 346.514 165.543 345.662C165.964 344.81 166.551 344.144 167.304 343.666C168.062 343.188 168.947 342.949 169.961 342.949C170.576 342.949 171.173 343.051 171.75 343.254C172.328 343.458 172.846 343.777 173.306 344.213C173.765 344.649 174.127 345.214 174.392 345.911C174.658 346.602 174.79 347.442 174.79 348.432V349.185H166.118V347.594H172.709C172.709 347.035 172.596 346.54 172.368 346.109C172.141 345.674 171.821 345.33 171.409 345.08C171.002 344.829 170.524 344.703 169.975 344.703C169.378 344.703 168.857 344.85 168.412 345.143C167.972 345.432 167.631 345.811 167.39 346.28C167.153 346.744 167.034 347.248 167.034 347.793V349.036C167.034 349.765 167.162 350.385 167.418 350.896C167.678 351.408 168.041 351.798 168.505 352.068C168.969 352.333 169.511 352.466 170.131 352.466C170.533 352.466 170.9 352.409 171.232 352.295C171.563 352.177 171.85 352.002 172.091 351.77C172.333 351.538 172.517 351.251 172.645 350.911L174.655 351.273C174.494 351.865 174.205 352.383 173.789 352.828C173.377 353.268 172.858 353.612 172.233 353.858C171.613 354.099 170.905 354.22 170.11 354.22ZM169.002 341.635L170.664 338.361H172.901L170.699 341.635H169.002ZM177.146 354V343.091H179.199V344.824H179.312C179.511 344.237 179.862 343.775 180.364 343.439C180.87 343.098 181.443 342.928 182.082 342.928C182.215 342.928 182.371 342.932 182.551 342.942C182.736 342.951 182.88 342.963 182.984 342.977V345.009C182.899 344.985 182.748 344.959 182.53 344.93C182.312 344.897 182.094 344.881 181.876 344.881C181.375 344.881 180.927 344.987 180.534 345.2C180.146 345.409 179.838 345.7 179.611 346.074C179.384 346.443 179.27 346.865 179.27 347.338V354H177.146ZM189.133 354.22C188.058 354.22 187.133 353.991 186.356 353.531C185.584 353.067 184.988 352.416 184.566 351.578C184.15 350.735 183.941 349.748 183.941 348.616C183.941 347.499 184.15 346.514 184.566 345.662C184.988 344.81 185.575 344.144 186.328 343.666C187.085 343.188 187.971 342.949 188.984 342.949C189.6 342.949 190.196 343.051 190.774 343.254C191.351 343.458 191.87 343.777 192.329 344.213C192.788 344.649 193.151 345.214 193.416 345.911C193.681 346.602 193.814 347.442 193.814 348.432V349.185H185.142V347.594H191.733C191.733 347.035 191.619 346.54 191.392 346.109C191.164 345.674 190.845 345.33 190.433 345.08C190.026 344.829 189.547 344.703 188.998 344.703C188.402 344.703 187.881 344.85 187.436 345.143C186.995 345.432 186.654 345.811 186.413 346.28C186.176 346.744 186.058 347.248 186.058 347.793V349.036C186.058 349.765 186.186 350.385 186.441 350.896C186.702 351.408 187.064 351.798 187.528 352.068C187.992 352.333 188.534 352.466 189.154 352.466C189.557 352.466 189.924 352.409 190.255 352.295C190.587 352.177 190.873 352.002 191.115 351.77C191.356 351.538 191.541 351.251 191.669 350.911L193.679 351.273C193.518 351.865 193.229 352.383 192.812 352.828C192.4 353.268 191.882 353.612 191.257 353.858C190.636 354.099 189.929 354.22 189.133 354.22ZM195.942 354V352.544L201.852 345.037V344.938H196.134V343.091H204.501V344.639L198.819 352.054V352.153H204.7V354H195.942ZM221.83 343.091L217.874 354H215.602L211.638 343.091H213.918L216.681 351.486H216.795L219.55 343.091H221.83ZM228.05 354.22C227.027 354.22 226.135 353.986 225.373 353.517C224.61 353.048 224.018 352.393 223.597 351.55C223.176 350.707 222.965 349.722 222.965 348.595C222.965 347.464 223.176 346.474 223.597 345.626C224.018 344.779 224.61 344.121 225.373 343.652C226.135 343.183 227.027 342.949 228.05 342.949C229.073 342.949 229.965 343.183 230.728 343.652C231.49 344.121 232.082 344.779 232.503 345.626C232.925 346.474 233.135 347.464 233.135 348.595C233.135 349.722 232.925 350.707 232.503 351.55C232.082 352.393 231.49 353.048 230.728 353.517C229.965 353.986 229.073 354.22 228.05 354.22ZM228.057 352.438C228.72 352.438 229.269 352.262 229.705 351.912C230.141 351.562 230.462 351.095 230.671 350.513C230.884 349.93 230.99 349.289 230.99 348.588C230.99 347.892 230.884 347.253 230.671 346.67C230.462 346.083 230.141 345.612 229.705 345.257C229.269 344.902 228.72 344.724 228.057 344.724C227.39 344.724 226.836 344.902 226.395 345.257C225.96 345.612 225.635 346.083 225.422 346.67C225.214 347.253 225.11 347.892 225.11 348.588C225.11 349.289 225.214 349.93 225.422 350.513C225.635 351.095 225.96 351.562 226.395 351.912C226.836 352.262 227.39 352.438 228.057 352.438ZM243.68 345.754L241.756 346.095C241.675 345.849 241.547 345.615 241.372 345.392C241.202 345.17 240.97 344.987 240.676 344.845C240.383 344.703 240.016 344.632 239.575 344.632C238.974 344.632 238.472 344.767 238.07 345.037C237.667 345.302 237.466 345.645 237.466 346.067C237.466 346.431 237.601 346.725 237.871 346.947C238.141 347.17 238.576 347.352 239.178 347.494L240.911 347.892C241.914 348.124 242.662 348.482 243.155 348.964C243.647 349.447 243.893 350.075 243.893 350.847C243.893 351.5 243.704 352.082 243.325 352.594C242.951 353.1 242.428 353.498 241.756 353.787C241.088 354.076 240.314 354.22 239.433 354.22C238.212 354.22 237.215 353.96 236.443 353.439C235.671 352.913 235.198 352.168 235.023 351.202L237.075 350.889C237.203 351.424 237.466 351.829 237.864 352.104C238.261 352.374 238.78 352.509 239.419 352.509C240.115 352.509 240.671 352.364 241.088 352.075C241.505 351.782 241.713 351.424 241.713 351.003C241.713 350.662 241.585 350.375 241.33 350.143C241.079 349.911 240.693 349.736 240.172 349.618L238.325 349.213C237.307 348.981 236.554 348.612 236.067 348.105C235.584 347.598 235.342 346.957 235.342 346.18C235.342 345.536 235.522 344.973 235.882 344.49C236.242 344.007 236.739 343.631 237.374 343.361C238.008 343.086 238.735 342.949 239.554 342.949C240.733 342.949 241.661 343.205 242.338 343.716C243.015 344.223 243.463 344.902 243.68 345.754ZM256.116 354.22C255.061 354.22 254.152 353.981 253.389 353.503C252.632 353.02 252.049 352.355 251.642 351.507C251.235 350.66 251.031 349.689 251.031 348.595C251.031 347.487 251.24 346.509 251.656 345.662C252.073 344.81 252.66 344.144 253.418 343.666C254.175 343.188 255.068 342.949 256.095 342.949C256.924 342.949 257.662 343.103 258.311 343.411C258.96 343.714 259.483 344.14 259.881 344.689C260.283 345.238 260.522 345.88 260.598 346.614H258.531C258.418 346.102 258.157 345.662 257.75 345.293C257.348 344.923 256.808 344.739 256.131 344.739C255.539 344.739 255.02 344.895 254.575 345.207C254.135 345.515 253.792 345.955 253.545 346.528C253.299 347.097 253.176 347.769 253.176 348.545C253.176 349.341 253.297 350.027 253.538 350.605C253.78 351.183 254.121 351.63 254.561 351.947C255.006 352.265 255.529 352.423 256.131 352.423C256.533 352.423 256.898 352.35 257.224 352.203C257.556 352.052 257.833 351.836 258.055 351.557C258.283 351.277 258.441 350.941 258.531 350.548H260.598C260.522 351.254 260.293 351.884 259.909 352.438C259.526 352.991 259.012 353.427 258.368 353.744C257.729 354.062 256.978 354.22 256.116 354.22ZM266.044 354.241C265.352 354.241 264.727 354.114 264.169 353.858C263.61 353.598 263.167 353.221 262.841 352.729C262.519 352.236 262.358 351.633 262.358 350.918C262.358 350.302 262.476 349.795 262.713 349.398C262.949 349 263.269 348.685 263.672 348.453C264.074 348.221 264.524 348.046 265.021 347.928C265.518 347.809 266.025 347.719 266.541 347.658C267.194 347.582 267.725 347.52 268.132 347.473C268.539 347.421 268.835 347.338 269.02 347.224C269.204 347.111 269.297 346.926 269.297 346.67V346.621C269.297 346 269.121 345.52 268.771 345.179C268.425 344.838 267.909 344.668 267.223 344.668C266.508 344.668 265.944 344.826 265.532 345.143C265.125 345.456 264.843 345.804 264.687 346.188L262.691 345.733C262.928 345.07 263.274 344.535 263.728 344.128C264.188 343.716 264.716 343.418 265.312 343.233C265.909 343.044 266.536 342.949 267.194 342.949C267.63 342.949 268.092 343.001 268.579 343.105C269.072 343.205 269.531 343.389 269.957 343.659C270.388 343.929 270.741 344.315 271.015 344.817C271.29 345.314 271.427 345.96 271.427 346.756V354H269.353V352.509H269.268C269.131 352.783 268.925 353.053 268.65 353.318C268.376 353.583 268.023 353.804 267.592 353.979C267.161 354.154 266.645 354.241 266.044 354.241ZM266.505 352.537C267.092 352.537 267.594 352.421 268.011 352.189C268.432 351.957 268.752 351.654 268.97 351.28C269.192 350.901 269.304 350.496 269.304 350.065V348.659C269.228 348.735 269.081 348.806 268.863 348.872C268.65 348.934 268.406 348.988 268.132 349.036C267.857 349.078 267.59 349.118 267.329 349.156C267.069 349.189 266.851 349.218 266.676 349.241C266.264 349.294 265.887 349.381 265.547 349.504C265.21 349.627 264.94 349.805 264.737 350.037C264.538 350.264 264.439 350.567 264.439 350.946C264.439 351.472 264.633 351.869 265.021 352.139C265.409 352.404 265.904 352.537 266.505 352.537ZM274.256 354V343.091H276.308V344.824H276.422C276.621 344.237 276.971 343.775 277.473 343.439C277.98 343.098 278.553 342.928 279.192 342.928C279.324 342.928 279.481 342.932 279.661 342.942C279.845 342.951 279.99 342.963 280.094 342.977V345.009C280.009 344.985 279.857 344.959 279.639 344.93C279.421 344.897 279.204 344.881 278.986 344.881C278.484 344.881 278.036 344.987 277.643 345.2C277.255 345.409 276.947 345.7 276.72 346.074C276.493 346.443 276.379 346.865 276.379 347.338V354H274.256ZM287.668 343.091V344.795H281.71V343.091H287.668ZM283.308 340.477H285.431V350.797C285.431 351.209 285.493 351.519 285.616 351.727C285.739 351.931 285.897 352.071 286.092 352.146C286.29 352.217 286.506 352.253 286.738 352.253C286.908 352.253 287.058 352.241 287.185 352.217C287.313 352.194 287.413 352.175 287.484 352.161L287.867 353.915C287.744 353.962 287.569 354.009 287.342 354.057C287.114 354.109 286.83 354.137 286.489 354.142C285.931 354.152 285.41 354.052 284.927 353.844C284.444 353.635 284.053 353.313 283.755 352.878C283.457 352.442 283.308 351.895 283.308 351.237V340.477ZM294.602 354.22C293.527 354.22 292.601 353.991 291.825 353.531C291.053 353.067 290.457 352.416 290.035 351.578C289.618 350.735 289.41 349.748 289.41 348.616C289.41 347.499 289.618 346.514 290.035 345.662C290.457 344.81 291.044 344.144 291.797 343.666C292.554 343.188 293.44 342.949 294.453 342.949C295.068 342.949 295.665 343.051 296.243 343.254C296.82 343.458 297.339 343.777 297.798 344.213C298.257 344.649 298.619 345.214 298.885 345.911C299.15 346.602 299.282 347.442 299.282 348.432V349.185H290.61V347.594H297.201C297.201 347.035 297.088 346.54 296.86 346.109C296.633 345.674 296.314 345.33 295.902 345.08C295.494 344.829 295.016 344.703 294.467 344.703C293.87 344.703 293.35 344.85 292.904 345.143C292.464 345.432 292.123 345.811 291.882 346.28C291.645 346.744 291.527 347.248 291.527 347.793V349.036C291.527 349.765 291.654 350.385 291.91 350.896C292.171 351.408 292.533 351.798 292.997 352.068C293.461 352.333 294.003 352.466 294.623 352.466C295.026 352.466 295.393 352.409 295.724 352.295C296.056 352.177 296.342 352.002 296.583 351.77C296.825 351.538 297.01 351.251 297.137 350.911L299.147 351.273C298.986 351.865 298.698 352.383 298.281 352.828C297.869 353.268 297.35 353.612 296.725 353.858C296.105 354.099 295.397 354.22 294.602 354.22ZM309.813 345.754L307.888 346.095C307.808 345.849 307.68 345.615 307.505 345.392C307.335 345.17 307.103 344.987 306.809 344.845C306.515 344.703 306.148 344.632 305.708 344.632C305.107 344.632 304.605 344.767 304.202 345.037C303.8 345.302 303.599 345.645 303.599 346.067C303.599 346.431 303.734 346.725 304.004 346.947C304.273 347.17 304.709 347.352 305.31 347.494L307.043 347.892C308.047 348.124 308.795 348.482 309.288 348.964C309.78 349.447 310.026 350.075 310.026 350.847C310.026 351.5 309.837 352.082 309.458 352.594C309.084 353.1 308.561 353.498 307.888 353.787C307.221 354.076 306.447 354.22 305.566 354.22C304.344 354.22 303.348 353.96 302.576 353.439C301.804 352.913 301.331 352.168 301.156 351.202L303.208 350.889C303.336 351.424 303.599 351.829 303.996 352.104C304.394 352.374 304.913 352.509 305.552 352.509C306.248 352.509 306.804 352.364 307.221 352.075C307.638 351.782 307.846 351.424 307.846 351.003C307.846 350.662 307.718 350.375 307.462 350.143C307.211 349.911 306.826 349.736 306.305 349.618L304.458 349.213C303.44 348.981 302.687 348.612 302.2 348.105C301.717 347.598 301.475 346.957 301.475 346.18C301.475 345.536 301.655 344.973 302.015 344.49C302.375 344.007 302.872 343.631 303.506 343.361C304.141 343.086 304.868 342.949 305.687 342.949C306.866 342.949 307.794 343.205 308.471 343.716C309.148 344.223 309.595 344.902 309.813 345.754ZM318.789 346.933V348.773H312.34V346.933H318.789ZM326.214 354.22C325.158 354.22 324.249 353.981 323.487 353.503C322.729 353.02 322.147 352.355 321.74 351.507C321.333 350.66 321.129 349.689 321.129 348.595C321.129 347.487 321.337 346.509 321.754 345.662C322.171 344.81 322.758 344.144 323.515 343.666C324.273 343.188 325.165 342.949 326.193 342.949C327.021 342.949 327.76 343.103 328.409 343.411C329.057 343.714 329.581 344.14 329.978 344.689C330.381 345.238 330.62 345.88 330.696 346.614H328.629C328.515 346.102 328.255 345.662 327.848 345.293C327.445 344.923 326.905 344.739 326.228 344.739C325.636 344.739 325.118 344.895 324.673 345.207C324.233 345.515 323.889 345.955 323.643 346.528C323.397 347.097 323.274 347.769 323.274 348.545C323.274 349.341 323.395 350.027 323.636 350.605C323.877 351.183 324.218 351.63 324.659 351.947C325.104 352.265 325.627 352.423 326.228 352.423C326.631 352.423 326.995 352.35 327.322 352.203C327.654 352.052 327.931 351.836 328.153 351.557C328.38 351.277 328.539 350.941 328.629 350.548H330.696C330.62 351.254 330.39 351.884 330.007 352.438C329.623 352.991 329.109 353.427 328.466 353.744C327.826 354.062 327.076 354.22 326.214 354.22ZM336.141 354.241C335.45 354.241 334.825 354.114 334.266 353.858C333.708 353.598 333.265 353.221 332.938 352.729C332.616 352.236 332.455 351.633 332.455 350.918C332.455 350.302 332.574 349.795 332.81 349.398C333.047 349 333.367 348.685 333.769 348.453C334.172 348.221 334.621 348.046 335.119 347.928C335.616 347.809 336.122 347.719 336.638 347.658C337.292 347.582 337.822 347.52 338.229 347.473C338.637 347.421 338.933 347.338 339.117 347.224C339.302 347.111 339.394 346.926 339.394 346.67V346.621C339.394 346 339.219 345.52 338.869 345.179C338.523 344.838 338.007 344.668 337.32 344.668C336.605 344.668 336.042 344.826 335.63 345.143C335.223 345.456 334.941 345.804 334.785 346.188L332.789 345.733C333.026 345.07 333.371 344.535 333.826 344.128C334.285 343.716 334.813 343.418 335.41 343.233C336.006 343.044 336.634 342.949 337.292 342.949C337.728 342.949 338.189 343.001 338.677 343.105C339.169 343.205 339.629 343.389 340.055 343.659C340.486 343.929 340.838 344.315 341.113 344.817C341.388 345.314 341.525 345.96 341.525 346.756V354H339.451V352.509H339.366C339.228 352.783 339.022 353.053 338.748 353.318C338.473 353.583 338.121 353.804 337.69 353.979C337.259 354.154 336.743 354.241 336.141 354.241ZM336.603 352.537C337.19 352.537 337.692 352.421 338.109 352.189C338.53 351.957 338.85 351.654 339.067 351.28C339.29 350.901 339.401 350.496 339.401 350.065V348.659C339.326 348.735 339.179 348.806 338.961 348.872C338.748 348.934 338.504 348.988 338.229 349.036C337.955 349.078 337.687 349.118 337.427 349.156C337.166 349.189 336.949 349.218 336.773 349.241C336.362 349.294 335.985 349.381 335.644 349.504C335.308 349.627 335.038 349.805 334.835 350.037C334.636 350.264 334.536 350.567 334.536 350.946C334.536 351.472 334.73 351.869 335.119 352.139C335.507 352.404 336.002 352.537 336.603 352.537ZM348.437 354.213C347.556 354.213 346.77 353.988 346.079 353.538C345.393 353.084 344.853 352.437 344.46 351.599C344.072 350.757 343.877 349.746 343.877 348.567C343.877 347.388 344.074 346.379 344.467 345.541C344.865 344.703 345.409 344.062 346.1 343.616C346.792 343.171 347.575 342.949 348.451 342.949C349.128 342.949 349.673 343.062 350.085 343.29C350.502 343.512 350.824 343.773 351.051 344.071C351.283 344.369 351.463 344.632 351.591 344.859H351.718V339.455H353.842V354H351.768V352.303H351.591C351.463 352.535 351.278 352.8 351.037 353.098C350.8 353.396 350.473 353.657 350.056 353.879C349.64 354.102 349.1 354.213 348.437 354.213ZM348.906 352.402C349.517 352.402 350.033 352.241 350.454 351.919C350.88 351.592 351.202 351.14 351.42 350.562C351.643 349.985 351.754 349.312 351.754 348.545C351.754 347.788 351.645 347.125 351.427 346.557C351.209 345.989 350.89 345.546 350.468 345.229C350.047 344.911 349.526 344.753 348.906 344.753C348.267 344.753 347.734 344.919 347.308 345.25C346.882 345.581 346.56 346.034 346.342 346.607C346.129 347.179 346.022 347.826 346.022 348.545C346.022 349.275 346.131 349.93 346.349 350.513C346.567 351.095 346.889 351.557 347.315 351.898C347.746 352.234 348.276 352.402 348.906 352.402ZM361.575 354.22C360.5 354.22 359.574 353.991 358.798 353.531C358.026 353.067 357.429 352.416 357.008 351.578C356.591 350.735 356.383 349.748 356.383 348.616C356.383 347.499 356.591 346.514 357.008 345.662C357.429 344.81 358.016 344.144 358.769 343.666C359.527 343.188 360.412 342.949 361.425 342.949C362.041 342.949 362.638 343.051 363.215 343.254C363.793 343.458 364.311 343.777 364.771 344.213C365.23 344.649 365.592 345.214 365.857 345.911C366.122 346.602 366.255 347.442 366.255 348.432V349.185H357.583V347.594H364.174C364.174 347.035 364.06 346.54 363.833 346.109C363.606 345.674 363.286 345.33 362.874 345.08C362.467 344.829 361.989 344.703 361.44 344.703C360.843 344.703 360.322 344.85 359.877 345.143C359.437 345.432 359.096 345.811 358.854 346.28C358.618 346.744 358.499 347.248 358.499 347.793V349.036C358.499 349.765 358.627 350.385 358.883 350.896C359.143 351.408 359.505 351.798 359.969 352.068C360.433 352.333 360.976 352.466 361.596 352.466C361.998 352.466 362.365 352.409 362.697 352.295C363.028 352.177 363.315 352.002 363.556 351.77C363.798 351.538 363.982 351.251 364.11 350.911L366.12 351.273C365.959 351.865 365.67 352.383 365.254 352.828C364.842 353.268 364.323 353.612 363.698 353.858C363.078 354.099 362.37 354.22 361.575 354.22ZM371.786 354.241C371.095 354.241 370.47 354.114 369.911 353.858C369.352 353.598 368.909 353.221 368.583 352.729C368.261 352.236 368.1 351.633 368.1 350.918C368.1 350.302 368.218 349.795 368.455 349.398C368.692 349 369.011 348.685 369.414 348.453C369.816 348.221 370.266 348.046 370.763 347.928C371.26 347.809 371.767 347.719 372.283 347.658C372.936 347.582 373.467 347.52 373.874 347.473C374.281 347.421 374.577 347.338 374.762 347.224C374.946 347.111 375.039 346.926 375.039 346.67V346.621C375.039 346 374.864 345.52 374.513 345.179C374.167 344.838 373.651 344.668 372.965 344.668C372.25 344.668 371.686 344.826 371.275 345.143C370.867 345.456 370.586 345.804 370.429 346.188L368.434 345.733C368.67 345.07 369.016 344.535 369.471 344.128C369.93 343.716 370.458 343.418 371.054 343.233C371.651 343.044 372.278 342.949 372.936 342.949C373.372 342.949 373.834 343.001 374.321 343.105C374.814 343.205 375.273 343.389 375.699 343.659C376.13 343.929 376.483 344.315 376.757 344.817C377.032 345.314 377.169 345.96 377.169 346.756V354H375.096V352.509H375.01C374.873 352.783 374.667 353.053 374.392 353.318C374.118 353.583 373.765 353.804 373.334 353.979C372.903 354.154 372.387 354.241 371.786 354.241ZM372.248 352.537C372.835 352.537 373.337 352.421 373.753 352.189C374.175 351.957 374.494 351.654 374.712 351.28C374.935 350.901 375.046 350.496 375.046 350.065V348.659C374.97 348.735 374.823 348.806 374.605 348.872C374.392 348.934 374.149 348.988 373.874 349.036C373.599 349.078 373.332 349.118 373.071 349.156C372.811 349.189 372.593 349.218 372.418 349.241C372.006 349.294 371.63 349.381 371.289 349.504C370.953 349.627 370.683 349.805 370.479 350.037C370.28 350.264 370.181 350.567 370.181 350.946C370.181 351.472 370.375 351.869 370.763 352.139C371.151 352.404 371.646 352.537 372.248 352.537ZM386.908 349.476V343.091H389.039V354H386.951V352.111H386.837C386.586 352.693 386.184 353.179 385.63 353.567C385.081 353.95 384.397 354.142 383.577 354.142C382.877 354.142 382.256 353.988 381.717 353.68C381.182 353.368 380.76 352.906 380.452 352.295C380.149 351.685 379.998 350.929 379.998 350.03V343.091H382.121V349.774C382.121 350.518 382.327 351.109 382.739 351.55C383.151 351.99 383.686 352.21 384.344 352.21C384.742 352.21 385.138 352.111 385.531 351.912C385.928 351.713 386.257 351.412 386.518 351.01C386.783 350.607 386.913 350.096 386.908 349.476ZM393.569 343.091L395.976 347.338L398.405 343.091H400.728L397.326 348.545L400.756 354H398.434L395.976 349.923L393.526 354H391.196L394.591 348.545L391.239 343.091H393.569Z" fill="#A4A4A4" fill-opacity="0.32"/>
<path d="M614 544H254C251.239 544 249 546.239 249 549V563C249 565.761 251.239 568 254 568H614C616.761 568 619 565.761 619 563V549C619 546.239 616.761 544 614 544Z" fill="#BABEC3"/>
<path d="M785.5 389H173.5C159.969 389 149 399.969 149 413.5C149 427.031 159.969 438 173.5 438H785.5C799.031 438 810 427.031 810 413.5C810 399.969 799.031 389 785.5 389Z" fill="#E1E9F0"/>
<path d="M957.5 389H860.5C846.969 389 836 399.969 836 413.5C836 427.031 846.969 438 860.5 438H957.5C971.031 438 982 427.031 982 413.5C982 399.969 971.031 389 957.5 389Z" fill="#BDC0CA"/>
<path d="M220 502H159C153.477 502 149 506.477 149 512V558C149 563.523 153.477 568 159 568H220C225.523 568 230 563.523 230 558V512C230 506.477 225.523 502 220 502Z" fill="#BABEC3"/>
<path d="M220 598H159C153.477 598 149 602.477 149 608V654C149 659.523 153.477 664 159 664H220C225.523 664 230 659.523 230 654V608C230 602.477 225.523 598 220 598Z" fill="#E1E9F0"/>
<path d="M956 502H254C251.239 502 249 504.239 249 507V523C249 525.761 251.239 528 254 528H956C958.761 528 961 525.761 961 523V507C961 504.239 958.761 502 956 502Z" fill="#A1CEBF"/>
<path d="M956 598H254C251.239 598 249 600.239 249 603V618C249 620.761 251.239 623 254 623H956C958.761 623 961 620.761 961 618V603C961 600.239 958.761 598 956 598Z" fill="#E1E9F0"/>
<path d="M614 640H254C251.239 640 249 642.239 249 645V659C249 661.761 251.239 664 254 664H614C616.761 664 619 661.761 619 659V645C619 642.239 616.761 640 614 640Z" fill="#E1E9F0"/>
<path d="M220 694H159C153.477 694 149 698.477 149 704V750C149 755.523 153.477 760 159 760H220C225.523 760 230 755.523 230 750V704C230 698.477 225.523 694 220 694Z" fill="#E1E9F0"/>
<path d="M956 694H254C251.239 694 249 696.239 249 699V713C249 715.761 251.239 718 254 718H956C958.761 718 961 715.761 961 713V699C961 696.239 958.761 694 956 694Z" fill="#E1E9F0"/>
<path d="M614 736H254C251.239 736 249 738.239 249 741V755C249 757.761 251.239 760 254 760H614C616.761 760 619 757.761 619 755V741C619 738.239 616.761 736 614 736Z" fill="#E1E9F0"/>
</g>
<g filter="url(#filter1_d_28_74)">
<path d="M1003 404H816C804.954 404 796 412.954 796 424V880C796 891.046 804.954 900 816 900H1003C1014.05 900 1023 891.046 1023 880V424C1023 412.954 1014.05 404 1003 404Z" fill="white"/>
<path d="M1003 404.5H816C805.23 404.5 796.5 413.23 796.5 424V880C796.5 890.77 805.23 899.5 816 899.5H1003C1013.77 899.5 1022.5 890.77 1022.5 880V424C1022.5 413.23 1013.77 404.5 1003 404.5Z" stroke="#C4C4C4"/>
<path d="M910 555C930.435 555 947 538.435 947 518C947 497.565 930.435 481 910 481C889.565 481 873 497.565 873 518C873 538.435 889.565 555 910 555Z" fill="#EAA1C3"/>
<path d="M961 567H858C855.239 567 853 569.239 853 572V585C853 587.761 855.239 590 858 590H961C963.761 590 966 587.761 966 585V572C966 569.239 963.761 567 961 567Z" fill="#E1E9F0"/>
<path d="M993 630H830C827.791 630 826 631.791 826 634V655C826 657.209 827.791 659 830 659H993C995.209 659 997 657.209 997 655V634C997 631.791 995.209 630 993 630Z" stroke="#BDC0CA" stroke-width="2"/>
<path d="M993 674H830C827.791 674 826 675.791 826 678V699C826 701.209 827.791 703 830 703H993C995.209 703 997 701.209 997 699V678C997 675.791 995.209 674 993 674Z" stroke="#BDC0CA" stroke-width="2"/>
<path d="M993 726H830C827.239 726 825 728.239 825 731V752C825 754.761 827.239 757 830 757H993C995.761 757 998 754.761 998 752V731C998 728.239 995.761 726 993 726Z" fill="#BDC0CA"/>
<path d="M936 597H883C881.895 597 881 597.895 881 599V605C881 606.105 881.895 607 883 607H936C937.105 607 938 606.105 938 605V599C938 597.895 937.105 597 936 597Z" fill="#E1E9F0"/>
</g>
<defs>
<filter id="filter0_d_28_74" x="79" y="277" width="982" height="575" filterUnits="userSpaceOnUse" color-interpolation-filters="sRGB">
<feFlood flood-opacity="0" result="BackgroundImageFix"/>
<feColorMatrix in="SourceAlpha" type="matrix" values="0 0 0 0 0 0 0 0 0 0 0 0 0 0 0 0 0 0 127 0" result="hardAlpha"/>
<feOffset/>
<feGaussianBlur stdDeviation="5"/>
<feComposite in2="hardAlpha" operator="out"/>
<feColorMatrix type="matrix" values="0 0 0 0 0 0 0 0 0 0 0 0 0 0 0 0 0 0 0.25 0"/>
<feBlend mode="normal" in2="BackgroundImageFix" result="effect1_dropShadow_28_74"/>
<feBlend mode="normal" in="SourceGraphic" in2="effect1_dropShadow_28_74" result="shape"/>
</filter>
<filter id="filter1_d_28_74" x="786" y="394" width="247" height="516" filterUnits="userSpaceOnUse" color-interpolation-filters="sRGB">
<feFlood flood-opacity="0" result="BackgroundImageFix"/>
<feColorMatrix in="SourceAlpha" type="matrix" values="0 0 0 0 0 0 0 0 0 0 0 0 0 0 0 0 0 0 127 0" result="hardAlpha"/>
<feOffset/>
<feGaussianBlur stdDeviation="5"/>
<feComposite in2="hardAlpha" operator="out"/>
<feColorMatrix type="matrix" values="0 0 0 0 0 0 0 0 0 0 0 0 0 0 0 0 0 0 0.14 0"/>
<feBlend mode="normal" in2="BackgroundImageFix" result="effect1_dropShadow_28_74"/>
<feBlend mode="normal" in="SourceGraphic" in2="effect1_dropShadow_28_74" result="shape"/>
</filter>
<linearGradient id="paint0_linear_28_74" x1="556.768" y1="306.782" x2="556.768" y2="948.781" gradientUnits="userSpaceOnUse">
<stop stop-color="#EAA1BA"/>
<stop offset="1" stop-color="#EAA1D2"/>
</linearGradient>
<linearGradient id="paint1_linear_28_74" x1="556.768" y1="28.6247" x2="556.768" y2="957.624" gradientUnits="userSpaceOnUse">
<stop stop-color="#EAA1BA"/>
<stop offset="1" stop-color="#EAA1D2"/>
</linearGradient>
</defs>
</svg>
